<?xml version="1.0" encoding="utf-8"?>
<!-- Generator: Adobe Illustrator 24.0.1, SVG Export Plug-In . SVG Version: 6.00 Build 0)  -->
<svg version="1.1" id="Режим_изоляции"
	 xmlns="http://www.w3.org/2000/svg" xmlns:xlink="http://www.w3.org/1999/xlink" x="0px" y="0px" viewBox="0 0 813.4 371"
	 style="enable-background:new 0 0 813.4 371;" xml:space="preserve">
<style type="text/css">
	.st0{opacity:0.91;fill:#FF5F5F;}
	.st1{fill:#FFE169;}
	.st2{fill:#FFFFFF;}
	.st3{fill:#4F93F6;}
	.st4{fill:#FBBCFF;}
</style>
<path class="st0" d="M637.1,113.9c-24.6-56.4-76.7-98.1-139.4-108h0c-9.4-1.5-19.1-2.3-29-2.3c-10,0-19.9,0.8-29.5,2.4
	c-62.9,10.1-115.1,52.2-139.4,109c-9.5,22.2-14.8,46.6-14.8,72.3c0,25.8,5.3,50.3,14.9,72.5c19.7,45.8,57.4,81.9,104.3,99.5
	c20.1,7.5,41.8,11.7,64.5,11.7c22.7,0,44.4-4.1,64.5-11.6h0c46.4-17.4,83.9-53.1,103.8-98.3c9.9-22.6,15.4-47.5,15.4-73.7
	C652.3,161.2,646.9,136.4,637.1,113.9z M500.9,257.7c-0.8,35-12.2,62.1-32.5,79.4c-20.3-17.4-31.7-44.5-32.4-79.6c0,0,0,0,0,0
	c0-1.1,0.1-2.3,0.1-3.5V106.3c0-1.2,0-2.4-0.1-3.5c0,0,0,0,0,0c0.7-35.4,12.1-62.8,32.4-80.3c20.3,17.5,31.7,44.9,32.5,80.1v0
	c-0.1,1.2-0.1,2.4-0.1,3.7v147.7C500.8,255.3,500.9,256.5,500.9,257.7L500.9,257.7z"/>
<path class="st1" d="M500.9,102.6c-0.1,1.2-0.1,2.4-0.1,3.7v147.7c0,1.2,0,2.4,0.1,3.6c0-1.2,0-2.4,0-3.6V106.3
	C501,105.1,500.9,103.8,500.9,102.6z M436,257.5c-1,25.7-13.4,38.9-35.9,38.9c-23.5,0-35.4-14.5-35.4-42.4V106.3
	c0-28.4,12-43.4,35.4-43.4c22.5,0,34.9,13.7,35.9,39.9c0.7-35.4,12.1-62.8,32.4-80.3c-8.3-7.2-18-12.7-29.2-16.5
	c-62.9,10.1-115.1,52.2-139.4,109v139c0,2,0,3.9,0.1,5.8c19.7,45.8,57.4,81.9,104.3,99.5c26.4-0.7,48.1-8.4,64.3-22.2
	C448.1,319.8,436.7,292.6,436,257.5z"/>
<path class="st2" d="M439.2,6c-62.9,10.1-115.1,52.2-139.4,109v-8.7C299.8,39.4,337.3,0,400.1,0C414.6,0,427.6,2,439.2,6z"/>
<path class="st2" d="M404.2,359.3c-1.3,0-2.7,0.1-4,0.1c-61,0-98.1-36.7-100.2-99.5C319.6,305.6,357.3,341.7,404.2,359.3z"/>
<path class="st3" d="M497.7,5.9L497.7,5.9c-11.2,3.8-21,9.3-29.3,16.5c20.3,17.5,31.7,44.9,32.5,80.1c1-26,12.9-39.7,35.4-39.7
	c23.5,0,35.9,15,35.9,43.4v147.7c0,27.9-12.5,42.4-35.9,42.4c-22.4,0-34.4-13.2-35.4-38.8c-0.8,35-12.2,62.1-32.5,79.4
	c16.2,13.9,38.1,21.6,64.7,22.2h0c46.4-17.4,83.9-53.1,103.8-98.3c0.1-2.3,0.1-4.6,0.1-7V113.9C612.5,57.5,560.3,15.8,497.7,5.9z
	 M436,106.3v147.7c0,1.2,0,2.3,0,3.5c0-1.1,0.1-2.3,0.1-3.5V106.3c0-1.2,0-2.4-0.1-3.5C436,104,436,105.1,436,106.3z"/>
<path class="st4" d="M500.8,106.3v147.7c0,1.2,0,2.4,0.1,3.6c0,0,0,0,0,0c-0.8,35-12.2,62.1-32.5,79.4
	c-20.3-17.4-31.7-44.5-32.4-79.6c0,0,0,0,0,0c0-1.1,0.1-2.3,0.1-3.5V106.3c0-1.2,0-2.4-0.1-3.5c0,0,0,0,0,0
	c0.7-35.4,12.1-62.8,32.4-80.3c20.3,17.5,31.7,44.9,32.5,80.1c0,0,0,0,0,0C500.9,103.8,500.8,105.1,500.8,106.3z"/>
<path class="st2" d="M637.1,106.3v7.6c-24.6-56.4-76.7-98.1-139.4-108C509.1,2,522.1,0,536.3,0C599.7,0,637.1,39.4,637.1,106.3z"/>
<path class="st2" d="M636.9,261c-2.6,62.1-39.6,98.3-100.7,98.3c-1,0-2.1,0-3.1,0C579.6,341.9,617.1,306.2,636.9,261z"/>
<path class="st2" d="M243.7,69.3v232.4h-44.8V129.4L167,147.6V99.2l48.5-29.9H243.7z"/>
<path class="st2" d="M679.9,275.8c0-73.7,83-106.9,83-145.7c0-10-5.3-20.3-18.3-20.3c-11.9,0-19.3,8.6-19.9,24.2h-42.5
	c2-44.2,24.2-66.7,61.7-66.7c44.1,0,63.7,31.2,63.7,60.4c0,59.4-80.3,98.9-80.3,134.1h81.3v41.8H679.9V275.8z"/>
<g>
	<path class="st2" d="M121.8,264.3H52L40,317.5H0l66.4-264h41.1l66.4,264h-39.6L121.8,264.3z M113.9,228.9L97.3,158
		c-3.8-17.3-7.9-42.6-9.8-56.6h-1.1c-1.9,14-5.7,39.2-9.8,56.6l-16.2,70.9H113.9z"/>
</g>
</svg>
